<!DOCTYPE svg PUBLIC "-//W3C//DTD SVG 20010904//EN" "http://www.w3.org/TR/2001/REC-SVG-20010904/DTD/svg10.dtd">
<svg version="1.0" xmlns="http://www.w3.org/2000/svg" width="200px" height="200px" viewBox="0 0 2000 2000" preserveAspectRatio="xMidYMid meet">
<g id="layer101" fill="#111111" stroke="none">
 <path d="M942 1901 c-10 -16 -57 -112 -106 -214 l-88 -185 -57 26 c-47 22 -71 26 -146 26 -78 1 -98 -3 -152 -28 -68 -31 -138 -98 -171 -162 -27 -54 -45 -149 -38 -198 9 -59 37 -146 47 -146 5 0 9 -5 9 -10 0 -23 59 -77 149 -137 2 -1 -21 -29 -52 -62 -30 -34 -70 -91 -89 -128 -32 -65 -33 -72 -32 -183 0 -95 4 -125 23 -173 12 -31 29 -63 37 -71 8 -8 14 -19 14 -25 0 -6 3 -11 8 -11 4 0 15 -15 25 -33 20 -36 142 -137 182 -150 14 -5 41 -6 60 -3 29 6 35 12 41 40 5 28 -3 51 -42 128 -109 212 -108 209 -112 288 l-4 76 79 75 c140 134 294 199 468 199 186 -1 346 -72 490 -219 l50 -52 0 -69 c0 -67 -3 -75 -78 -222 -62 -122 -78 -162 -77 -196 0 -37 4 -44 26 -53 50 -18 117 16 203 103 59 59 82 91 116 158 94 186 66 365 -82 530 -30 34 -43 55 -35 58 7 2 34 18 59 35 78 53 143 185 143 289 0 86 -46 194 -110 258 -51 51 -102 76 -184 91 -74 14 -167 2 -231 -28 -19 -9 -37 -15 -39 -12 -3 3 -50 98 -106 212 l-101 207 -40 0 c-33 0 -42 -5 -57 -29z m162 -605 c-8 -28 -14 -69 -14 -91 l0 -40 -95 0 -95 0 0 46 c0 26 -7 66 -15 89 -8 23 -15 44 -15 45 0 2 56 3 124 3 l123 -1 -13 -51z"/>
 </g>
<g id="layer102" fill="#f4f4f4" stroke="none">
 <path d="M875 1670 l-115 -230 -37 25 c-123 84 -303 66 -408 -42 -59 -61 -88 -134 -89 -224 -1 -68 3 -84 34 -145 38 -75 105 -135 173 -156 20 -6 37 -14 37 -17 0 -4 -27 -30 -60 -59 -111 -98 -162 -198 -163 -318 0 -76 11 -120 50 -199 59 -117 179 -235 241 -235 44 0 42 26 -9 120 -103 193 -125 260 -114 349 6 48 12 59 69 115 160 161 351 236 561 221 165 -11 316 -82 451 -212 65 -62 72 -72 78 -119 12 -93 -10 -165 -99 -324 -29 -52 -56 -110 -60 -127 -6 -31 -5 -33 23 -33 60 0 200 136 256 248 92 188 65 335 -94 494 l-77 78 56 25 c102 47 166 130 190 245 19 95 -23 215 -100 284 -67 61 -120 81 -220 81 -77 0 -91 -3 -148 -33 -35 -18 -65 -32 -66 -30 -2 2 -53 103 -114 226 -61 122 -115 222 -121 222 -5 0 -62 -103 -125 -230z m238 -11 c59 -122 106 -223 104 -225 -14 -14 -147 -37 -217 -37 -70 0 -203 22 -217 37 -5 5 210 446 217 446 3 0 54 -100 113 -221z m-148 -276 c69 -4 119 -1 163 10 34 8 62 10 62 5 0 -5 -12 -32 -27 -61 -23 -45 -27 -64 -28 -140 l0 -88 -40 8 c-52 10 -161 10 -203 0 l-34 -9 7 55 c8 61 -12 148 -46 203 -22 37 -17 46 20 32 14 -5 71 -12 126 -15z m-274 -46 c50 -34 79 -82 79 -134 0 -51 -16 -87 -59 -127 -26 -25 -42 -30 -91 -34 -52 -4 -66 -1 -99 21 -100 66 -94 229 11 280 49 24 118 22 159 -6z m780 0 c81 -55 103 -146 53 -224 -60 -91 -198 -100 -263 -17 -45 57 -46 146 -4 202 46 62 151 81 214 39z"/>
 <path d="M983 1343 c9 -2 25 -2 35 0 9 3 1 5 -18 5 -19 0 -27 -2 -17 -5z"/>
 <path d="M513 1553 c15 -2 39 -2 55 0 15 2 2 4 -28 4 -30 0 -43 -2 -27 -4z"/>
 <path d="M1423 1553 c15 -2 39 -2 55 0 15 2 2 4 -28 4 -30 0 -43 -2 -27 -4z"/>
 <path d="M290 1455 c-24 -25 -42 -45 -39 -45 3 0 25 20 49 45 24 25 42 45 39 45 -3 0 -25 -20 -49 -45z"/>
 <path d="M260 977 c0 -2 15 -16 33 -33 l32 -29 -29 33 c-28 30 -36 37 -36 29z"/>
 <path d="M345 820 l-49 -55 54 52 c30 29 52 54 50 56 -3 1 -27 -22 -55 -53z"/>
 <path d="M1590 874 c0 -6 19 -28 43 -49 l42 -40 -40 45 c-22 25 -41 47 -42 49 -2 2 -3 0 -3 -5z"/>
 <path d="M973 843 c15 -2 37 -2 50 0 12 2 0 4 -28 4 -27 0 -38 -2 -22 -4z"/>
 <path d="M510 633 l-65 -68 68 65 c37 35 67 66 67 67 0 8 -10 -2 -70 -64z"/>
 <path d="M1470 635 c30 -30 57 -55 59 -55 3 0 -19 25 -49 55 -30 30 -57 55 -59 55 -3 0 19 -25 49 -55z"/>
 <path d="M523 33 c9 -2 25 -2 35 0 9 3 1 5 -18 5 -19 0 -27 -2 -17 -5z"/>
 </g>

</svg>